<svg width="58" height="58" viewBox="0 0 58 58" fill="none" xmlns="http://www.w3.org/2000/svg">
<path d="M53.515 30C53.515 44.6692 41.8426 56.515 27.5 56.515C13.1574 56.515 1.485 44.6692 1.485 30C1.485 15.3308 13.1574 3.485 27.5 3.485C41.8426 3.485 53.515 15.3308 53.515 30Z" fill="#101010" stroke="#101010" stroke-width="2.97"/>
<circle cx="30.5" cy="27.5" r="26.015" fill="#FF6610" stroke="#101010" stroke-width="2.97"/>
<path d="M15.969 41.3969L10.884 35.6786C9.82362 34.4862 9.8688 32.6761 10.9873 31.5381C12.2687 30.2343 14.4037 30.3523 15.5335 31.7893L19.4252 36.7387C20.231 37.7635 21.7574 37.8374 22.6584 36.8952L41.3737 17.3247C42.5902 16.0526 44.6177 16.0387 45.8515 17.294C47.044 18.5074 47.0441 20.4526 45.8515 21.6659L26.2075 41.6524C23.3637 44.5459 18.665 44.4286 15.969 41.3969Z" fill="#101010" stroke="#101010" stroke-width="2.97"/>
<path d="M18.2977 38.5614L12.9884 32.7401C11.877 31.5216 11.9239 29.6435 13.0948 28.482C14.3899 27.1972 16.512 27.3149 17.6571 28.7349L21.6925 33.7387C22.5261 34.7723 24.0746 34.8475 25.0043 33.8996L44.2593 14.268C45.4859 13.0175 47.4957 13.0038 48.7393 14.2374C49.9849 15.473 49.9849 17.487 48.7393 18.7227L28.4839 38.816C25.6339 41.6432 21.0029 41.5274 18.2977 38.5614Z" fill="#CCFF6F" stroke="#101010" stroke-width="2.97"/>
</svg>
